# xmcd CD database file
#
# Track frame offsets:
#	150
#	11225
#	25634
#	42682
#	58959
#	70658
#	85359
#	99121
#	115493
#	130986
#	145739
#	161921
#	177364
#	192356
#	207201
#	221963
#	234467
#	249513
#	262024
#	279632
#	298082
#	313113
#	326786
#	340800
#
# Disc length: 4766 seconds
#
# Revision: 0
# Processed by: cddbd v1.5.1PL2 Copyright (c) Steve Scherf et al.
# Submitted via: CDex 1.51
#
DISCID=80129c18
DTITLE=0403-Biggest Country Hits 1980-1982 - Biggest Country Hits 1980-1982
DYEAR=1983
DGENRE=Country
TTITLE0=Drifter - Sylvia
TTITLE1=Old Flame - Alabama
TTITLE2=Smoky Mountain Rain - Ronnie Milsap
TTITLE3=I Ain't Living Long Like This - Waylon Jennings
TTITLE4=I Dont't Think She's In Love Anymore - Charley Pride
TTITLE5=But You Know I Love You - Dolly Parton
TTITLE6=Never Been So Loved - Charley Pride
TTITLE7=Any Day Now - Ronnie Milsap
TTITLE8=Feel So Right - Alabama
TTITLE9=Somewhere Between Right And Wrong - Earl Thomas Conley
TTITLE10=I Wouldn't Have Missed It For The World - Ronnie Milsap
TTITLE11=You're So Good When You're Bad - Charley Pride
TTITLE12=No Gettin' Over Me - Ronnie Milsap
TTITLE13=She Got The Goldmine - Jerry Reed
TTITLE14=She Left Love All Over Me - Razzy Bailey
TTITLE15=9 To 5 - Dolly Parton
TTITLE16=Love In The First Degree - Alabama
TTITLE17=Mountain Of Love - Charley Pride
TTITLE18=Mountain Music - Alabama
TTITLE19=Why Don't You Spend The Night - Ronnie Milsap
TTITLE20=Nobody - Sylvia
TTITLE21=You Win Again - Charley Pride
TTITLE22=I Will Always Love You - Dolly Parton
TTITLE23=Take Me Down - Alabama
EXTD=YEAR: 1983
EXTT0=
EXTT1=
EXTT2=
EXTT3=
EXTT4=
EXTT5=
EXTT6=
EXTT7=
EXTT8=
EXTT9=
EXTT10=
EXTT11=
EXTT12=
EXTT13=
EXTT14=
EXTT15=
EXTT16=
EXTT17=
EXTT18=
EXTT19=
EXTT20=
EXTT21=
EXTT22=
EXTT23=
PLAYORDER=
